<svg xmlns="http://www.w3.org/2000/svg" width="600" height="600" viewBox="0 0 600 600">
  <rect width="600" height="600" fill="#f0f7ff"/>
  <rect x="100" y="100" width="400" height="300" rx="20" fill="#ffffff" stroke="#0066cc" stroke-width="4"/>
  <rect x="150" y="150" width="100" height="100" fill="#e6f2ff" stroke="#0066cc" stroke-width="2"/>
  <rect x="350" y="150" width="100" height="100" fill="#e6f2ff" stroke="#0066cc" stroke-width="2"/>
  <rect x="150" y="270" width="300" height="80" fill="#e6f2ff" stroke="#0066cc" stroke-width="2"/>
  <circle cx="200" cy="200" r="30" fill="#0066cc" opacity="0.2"/>
  <circle cx="400" cy="200" r="30" fill="#0066cc" opacity="0.2"/>
  <path d="M175 200 L225 200" stroke="#0066cc" stroke-width="3"/>
  <path d="M175 185 L175 215" stroke="#0066cc" stroke-width="3"/>
  <path d="M375 185 L425 215" stroke="#0066cc" stroke-width="3"/>
  <path d="M375 215 L425 185" stroke="#0066cc" stroke-width="3"/>
  <path d="M200 310 L400 310" stroke="#0066cc" stroke-width="3"/>
  <circle cx="220" cy="310" r="10" fill="#0066cc"/>
  <circle cx="280" cy="310" r="10" fill="#0066cc"/>
  <circle cx="340" cy="310" r="10" fill="#0066cc"/>
  <circle cx="400" cy="310" r="10" fill="#0066cc"/>
  <path d="M200 450 L400 450" stroke="#0066cc" stroke-width="4" stroke-dasharray="10,10"/>
  <circle cx="200" cy="450" r="20" fill="#0066cc"/>
  <circle cx="300" cy="450" r="20" fill="#0066cc"/>
  <circle cx="400" cy="450" r="20" fill="#0066cc"/>
  <path d="M220 450 L280 450" stroke="#ffffff" stroke-width="2"/>
  <path d="M320 450 L380 450" stroke="#ffffff" stroke-width="2"/>
  <text x="300" y="530" font-family="Arial" font-size="16" fill="#333" text-anchor="middle">Por que escolher a Reter Redes?</text>
</svg> 