<?xml version="1.0" encoding="UTF-8"?>
<svg xmlns="http://www.w3.org/2000/svg" viewBox="0 0 300 80">
  <g fill="#0066CC">
    <path d="M20 15h20c8.284 0 15 6.716 15 15 0 8.284-6.716 15-15 15H25v15H20V15zm5 25h15c5.523 0 10-4.477 10-10s-4.477-10-10-10H25v20z"/>
    <path d="M65 15h5v30h20v5H65V15z"/>
    <path d="M100 15h25v5h-20v10h15v5h-15v10h20v5h-25V15z"/>
    <path d="M135 15h5v25c0 5.523 4.477 10 10 10s10-4.477 10-10V15h5v25c0 8.284-6.716 15-15 15s-15-6.716-15-15V15z"/>
  </g>
  <g fill="#333333">
    <path d="M175 15h20c8.284 0 15 6.716 15 15 0 8.284-6.716 15-15 15h-15v15h-5V15zm5 25h15c5.523 0 10-4.477 10-10s-4.477-10-10-10h-15v20z"/>
    <path d="M220 15h5v30h20v5h-25V15z"/>
    <path d="M255 15h5v45h-5V15z"/>
    <path d="M270 15h25c8.284 0 15 6.716 15 15v15c0 8.284-6.716 15-15 15h-25V15zm5 5v30h20c5.523 0 10-4.477 10-10V30c0-5.523-4.477-10-10-10h-20z"/>
  </g>
</svg> 